#!OML:ASF E:\id_vita\Project 1\Capture day 1\Session 1\Female.ASF
:FULLY-SPECIFIED
:DEGREES
1003
root 33.1343 16.9583 -9.88056 -152.765 67.3854 182.433
lowerback -15.8343 2.15131 -4.91067
upperback -7.52236 4.1305 0.047398
thorax 0.52195 2.458 3.46212
lowerneck 0.11407 -0.949822 -7.02849
upperneck -7.60802 -1.00248 4.82812
head -2.4066 -0.375566 2.83599
rclavicle 7.35317e-014 3.10601e-015
rhumerus 57.7552 -0.641396 -47.54
rradius 60.2985
rwrist -6.43649
rhand -44.9213 25.9624
rfingers 7.12502
rthumb -17.7079 -3.25125
lclavicle 7.35317e-014 3.10601e-015
lhumerus 80.6518 -4.57105 45.1706
lradius 32.3838
lwrist -27.0706
lhand -29.7076 25.5182
lfingers 7.12502
lthumb -3.03512 55.4763
rfemur -8.76582 3.50955 23.5095
rtibia 17.1855
rfoot 5.22329 -3.77897
rtoes -15.4196
lfemur -40.0381 -13.9362 -11.1148
ltibia 22.1331
lfoot -11.5205 -4.43199
ltoes -0.412339
1004
root 33.1357 16.9568 -9.87674 -152.672 67.307 182.481
lowerback -15.8471 2.04441 -4.98819
upperback -7.48058 3.99567 0.149266
thorax 0.571846 2.3904 3.59542
lowerneck 0.832432 -0.930093 -6.38107
upperneck -8.59492 -1.02978 3.9727
head -2.86566 -0.372503 2.45112
rclavicle 2.06161e-014 -1.56419e-014
rhumerus 57.7874 -0.932627 -48.3928
rradius 61.7029
rwrist -7.53562
rhand -43.4319 28.4309
rfingers 7.12502
rthumb -16.2743 -0.906112
lclavicle 2.06161e-014 -1.56419e-014
lhumerus 80.4003 -4.08008 43.7995
lradius 34.136
lwrist -21.2129
lhand -26.5176 24.5686
lfingers 7.12502
lthumb 0.0458696 54.5483
rfemur -8.8191 3.66093 23.5826
rtibia 17.1976
rfoot 5.2984 -3.99232
rtoes -15.2974
lfemur -40.0954 -13.925 -11.0374
ltibia 22.0816
lfoot -11.4659 -4.56874
ltoes -0.159862
1005
root 33.1341 16.956 -9.87501 -152.718 67.2718 182.419
lowerback -15.9512 1.94816 -5.23448
upperback -7.34737 3.89763 0.317548
thorax 0.746242 2.33765 3.90817
lowerneck 0.625391 -0.87631 -6.60511
upperneck -8.62869 -0.942471 4.01738
head -2.84476 -0.31874 2.50323
rclavicle 7.11665e-015 -1.30949e-014
rhumerus 57.799 -1.29387 -49.0951
rradius 63.4237
rwrist -8.49097
rhand -42.3315 29.4406
rfingers 7.12502
rthumb -15.2145 0.0200744
lclavicle 7.11665e-015 -1.30949e-014
lhumerus 80.6925 -4.1165 45.6769
lradius 31.7271
lwrist -28.4584
lhand -31.2178 26.3451
lfingers 7.12502
lthumb -4.49343 56.2774
rfemur -8.84624 3.6492 23.5864
rtibia 17.2373
rfoot 5.33438 -4.03057
rtoes -15.3274
lfemur -40.0778 -13.9488 -11.0257
ltibia 21.9919
lfoot -11.4327 -4.60981
ltoes -0.0533338
1006
root 33.1334 16.9567 -9.87417 -152.736 67.2111 182.37
lowerback -15.6199 1.99184 -5.12422
upperback -7.59445 3.93813 0.129644
thorax 0.328344 2.37769 3.62332
lowerneck 0.669423 -0.811343 -6.29891
upperneck -8.3469 -0.863687 3.99791
head -2.76086 -0.297007 2.43441
rclavicle -2.54677e-014 1.48095e-014
rhumerus 57.1047 -1.77908 -50.4392
rradius 64.4176
rwrist -8.18133
rhand -41.3005 32.1108
rfingers 7.12502
rthumb -14.2212 2.61762
lclavicle -2.54677e-014 1.48095e-014
lhumerus 80.4622 -4.37327 44.1585
lradius 32.2023
lwrist -27.4076
lhand -30.9908 26.9027
lfingers 7.12502
lthumb -4.27423 56.8396
rfemur -8.94388 3.5811 23.6003
rtibia 17.3667
rfoot 5.33934 -4.0322
rtoes -15.1884
lfemur -40.0513 -13.9782 -11.0023
ltibia 21.8457
lfoot -11.4341 -4.66772
ltoes 0.218786
1007
root 33.1329 16.9584 -9.87384 -152.868 67.1886 182.101
lowerback -15.7387 1.95393 -5.3842
upperback -7.61261 3.93541 0.179271
thorax 0.348304 2.38685 3.82721
lowerneck 1.02661 -0.582015 -6.12943
upperneck -8.63333 -0.591134 3.65159
head -2.93815 -0.154762 2.28878
rclavicle -2.91289e-014 5.31749e-015
rhumerus 56.6905 -2.06872 -51.0582
rradius 66.1893
rwrist -7.9635
rhand -41.6772 31.5185
rfingers 7.12502
rthumb -14.5842 2.05123
lclavicle -2.91289e-014 5.31749e-015
lhumerus 80.5001 -4.32805 43.756
lradius 32.9008
lwrist -25.0877
lhand -29.5006 26.2905
lfingers 7.12502
lthumb -2.83521 56.2514
rfemur -9.11813 3.54027 23.5016
rtibia 17.4297
rfoot 5.31647 -4.09396
rtoes -15.1688
lfemur -40.1631 -14.004 -11.059
ltibia 21.7691
lfoot -11.4477 -4.74476
ltoes 0.637862
1008
root 33.1342 16.959 -9.87205 -153.269 67.2578 181.383
lowerback -15.9188 1.83074 -5.76953
upperback -7.74827 3.85467 0.137078
thorax 0.281545 2.37018 3.99248
lowerneck 1.63034 -0.76878 -6.06244
upperneck -9.21839 -0.882693 3.40066
head -3.23488 -0.287183 2.21666
rclavicle 7.9039e-014 2.98922e-014
rhumerus 56.2193 -2.11286 -51.8649
rradius 68.604
rwrist -7.84952
rhand -42.6348 28.6166
rfingers 7.12502
rthumb -15.5067 -0.781546
lclavicle 7.9039e-014 2.98922e-014
lhumerus 80.2958 -4.44918 43.038
lradius 33.1724
lwrist -23.6197
lhand -30.4672 27.0452
lfingers 7.12502
lthumb -3.76859 56.9916
rfemur -9.47052 3.75066 23.1852
rtibia 17.5542
rfoot 5.32398 -4.45298
rtoes -15.305
lfemur -40.3901 -14.0005 -11.2891
ltibia 21.6081
lfoot -11.4267 -4.81787
ltoes 0.607276
